<svg width="15" height="26" viewBox="0 0 15 26" fill="none" xmlns="http://www.w3.org/2000/svg">
<path d="M7.36644 0.5C7.67939 0.5 7.9331 0.772099 7.9331 1.10775L7.9331 24.3542C7.9331 24.6899 7.67939 24.962 7.36643 24.962C7.05348 24.962 6.79977 24.6899 6.79977 24.3542L6.79977 1.10775C6.79977 0.772099 7.05348 0.5 7.36644 0.5Z" fill="white"/>
<path d="M14.359 18.2775C14.5656 18.5296 14.5425 18.9136 14.3073 19.1352L7.71329 25.3488C7.47818 25.5703 7.12014 25.5455 6.91357 25.2934C6.70701 25.0412 6.73015 24.6572 6.96525 24.4357L13.5593 18.222C13.7944 18.0005 14.1525 18.0253 14.359 18.2775Z" fill="white"/>
<path d="M7.67407 25.3111C7.45277 25.5484 7.09398 25.5484 6.87269 25.3111L0.66597 18.6543C0.444675 18.417 0.444675 18.0322 0.66597 17.7948C0.887265 17.5575 1.24606 17.5575 1.46735 17.7948L7.67407 24.4516C7.89537 24.689 7.89537 25.0738 7.67407 25.3111Z" fill="white"/>
</svg>
