<svg width="16" height="9" viewBox="0 0 16 9" fill="none" xmlns="http://www.w3.org/2000/svg">
<path d="M0 4.58586C0 4.38468 0.174144 4.22158 0.388961 4.22158L15.2667 4.22158C15.4815 4.22158 15.6557 4.38468 15.6557 4.58586C15.6557 4.78705 15.4815 4.95015 15.2667 4.95015L0.38896 4.95015C0.174143 4.95015 0 4.78705 0 4.58586Z" fill="#E83C25"/>
<path d="M11.3776 0.0906255C11.539 -0.0421655 11.7847 -0.0272912 11.9265 0.123848L15.9032 4.36289C16.045 4.51403 16.0291 4.7442 15.8678 4.87699C15.7064 5.00978 15.4606 4.9949 15.3188 4.84376L11.3421 0.604727C11.2003 0.453587 11.2162 0.223417 11.3776 0.0906255Z" fill="#E83C25"/>
<path d="M15.8791 4.3881C16.031 4.53036 16.031 4.76101 15.8791 4.90327L11.6188 8.8933C11.4669 9.03556 11.2206 9.03556 11.0687 8.8933C10.9168 8.75104 10.9168 8.52039 11.0687 8.37813L15.329 4.3881C15.4809 4.24583 15.7272 4.24584 15.8791 4.3881Z" fill="#E83C25"/>
</svg>
